# xmcd
#
# Track frame offsets:
#	150
#	17635
#	34130
#	49637
#	69557
#	84090
#	99075
#	111590
#	132110
#	151677
#	168500
#	186547
#	201425
#	216815
#	232447
#	249192
#	269970
#	288720
#	309222
#	329802
#
# Disc length: 4630 seconds
#
# Revision: 0
# Processed by: cddbd v1.5.2PL0 Copyright (c) Steve Scherf et al.
# Submitted via: audiograbber 1.83.01
#
DISCID=2b121414
DTITLE=Roger Daltrey - Martyrs and Madmen: The Best Of Roger Daltrey [remastered]
DYEAR=1997
DGENRE=Rock
TTITLE0=One Man Band
TTITLE1=It's A Hard Life
TTITLE2=Giving It All Away
TTITLE3=Thinking
TTITLE4=World Over
TTITLE5=Oceans Away
TTITLE6=One Of The Boys
TTITLE7=Avenging Annie
TTITLE8=Say It Ain't So, Joe
TTITLE9=Parade
TTITLE10=Free Me
TTITLE11=Without Your Love
TTITLE12=Waiting For A Friend
TTITLE13=Walking In My Sleep
TTITLE14=Parting Would Be Painless
TTITLE15=After The Fire
TTITLE16=Let Me Down Easy
TTITLE17=The Pride You Hide
TTITLE18=Under A Raging Moon [single version]
TTITLE19=Lover's Storm
EXTD=
EXTT0=
EXTT1=
EXTT2=
EXTT3=
EXTT4=
EXTT5=
EXTT6=
EXTT7=
EXTT8=
EXTT9=
EXTT10=
EXTT11=
EXTT12=
EXTT13=
EXTT14=
EXTT15=
EXTT16=
EXTT17=
EXTT18=
EXTT19=
PLAYORDER=
